<?xml version="1.0" encoding="UTF-8"?>
<svg xmlns="http://www.w3.org/2000/svg" xmlns:xlink="http://www.w3.org/1999/xlink" width="3003" height="3003" viewBox="0 0 3003 3003">
<path fill-rule="nonzero" fill="rgb(99.609375%, 99.609375%, 99.609375%)" fill-opacity="1" d="M 1.042969 0 C 0.765625 0 0.5 0.109375 0.304688 0.308594 C 0.109375 0.5 0 0.769531 0 1.039062 L 0 3001.042969 C 0 3001.617188 0.46875 3002.085938 1.042969 3002.085938 L 3001.039062 3002.085938 C 3001.320312 3002.085938 3001.589844 3001.976562 3001.78125 3001.78125 C 3001.980469 3001.585938 3002.089844 3001.320312 3002.089844 3001.042969 L 3002.089844 1.039062 C 3002.089844 0.46875 3001.621094 0 3001.039062 0 Z M 1.042969 0 "/>
<path fill-rule="nonzero" fill="rgb(0%, 0%, 0%)" fill-opacity="1" d="M 2063.820312 2018.0625 C 2082.839844 1944.128906 2097.320312 1868.300781 2106.871094 1790.648438 C 2108.101562 1780.570312 2109.261719 1770.460938 2110.328125 1760.320312 L 2237.589844 1760.320312 C 2282.75 1760.320312 2319.699219 1722.71875 2319.699219 1676.75 L 2319.699219 1550.621094 L 2481.710938 1551.148438 C 2470.71875 1721.960938 2417.410156 1881.191406 2332.378906 2018.0625 Z M 1919.890625 2389.585938 C 1959.609375 2314.925781 1993.53125 2237.425781 2021.578125 2157.375 L 2228.140625 2157.378906 C 2141.808594 2253.945312 2037.160156 2333.230469 1919.890625 2389.585938 Z M 1729.671875 2457.585938 C 1676.988281 2470.378906 1622.691406 2478.796875 1567.109375 2482.511719 L 1567.109375 2157.375 L 1876.121094 2157.378906 C 1835.96875 2260.464844 1784.820312 2359.007812 1722.550781 2452.6875 Z M 1973.519531 1760.320312 C 1963.300781 1848.890625 1946.390625 1934.839844 1922.820312 2018.0625 L 1567.109375 2018.066406 L 1567.109375 1760.320312 Z M 1495.28125 1447.71875 L 1426.789062 1670.320312 L 1384.058594 1670.328125 L 1382.890625 1674.121094 L 1381.960938 1670.320312 L 1343.140625 1670.328125 L 1269.359375 1403.578125 L 1195.570312 1670.320312 L 1156.75 1670.328125 L 1155.820312 1674.121094 L 1154.640625 1670.320312 L 1111.921875 1670.328125 L 1043.429688 1447.71875 L 974.933594 1670.320312 L 932.207031 1670.328125 L 931.035156 1674.121094 L 930.097656 1670.320312 L 891.277344 1670.328125 L 778.398438 1262.261719 L 886.894531 1262.261719 L 937.273438 1468.679688 L 1001.21875 1262.261719 L 1043.148438 1262.261719 L 1043.429688 1261.339844 L 1043.71875 1262.261719 L 1085.640625 1262.261719 L 1149.570312 1468.679688 L 1199.960938 1262.261719 L 1338.738281 1262.261719 L 1389.128906 1468.679688 L 1453.070312 1262.261719 L 1495 1262.261719 L 1495.28125 1261.339844 L 1495.578125 1262.261719 L 1537.5 1262.261719 L 1601.429688 1468.679688 L 1651.820312 1262.261719 L 1790.601562 1262.261719 L 1840.988281 1468.679688 L 1904.929688 1262.261719 L 1946.851562 1262.261719 L 1947.140625 1261.339844 L 1947.429688 1262.261719 L 1989.351562 1262.261719 L 2053.289062 1468.679688 L 2103.691406 1262.261719 L 2212.171875 1262.261719 L 2099.289062 1670.320312 L 2060.46875 1670.328125 L 2059.539062 1674.121094 L 2058.359375 1670.320312 L 2015.640625 1670.328125 L 1947.140625 1447.71875 L 1878.648438 1670.320312 L 1835.921875 1670.328125 L 1834.75 1674.121094 L 1833.808594 1670.320312 L 1795 1670.328125 L 1721.210938 1403.578125 L 1647.429688 1670.320312 L 1608.609375 1670.328125 L 1607.679688 1674.121094 L 1606.5 1670.320312 L 1563.78125 1670.328125 Z M 1430.289062 2018.0625 L 1055.800781 2018.066406 C 1032.570312 1934.808594 1016.269531 1848.859375 1006.828125 1760.320312 L 1430.289062 1760.320312 Z M 1430.289062 2482.050781 C 1370.558594 2477.652344 1312.289062 2467.796875 1255.960938 2452.925781 C 1193.308594 2359.074219 1141.980469 2260.507812 1102.058594 2157.375 L 1430.289062 2157.378906 Z M 776.109375 2157.375 L 951.574219 2157.378906 C 976.804688 2229.71875 1007.078125 2299.953125 1042.109375 2368.015625 C 941.898438 2313.664062 851.945312 2242.1875 776.109375 2157.375 Z M 671.871094 2018.0625 C 585.746094 1879.460938 532.179688 1717.941406 522.140625 1544.679688 L 664.039062 1545.140625 L 664.039062 1676.75 C 664.039062 1722.71875 700.972656 1760.320312 746.128906 1760.320312 L 864.847656 1760.320312 C 866.535156 1777.46875 868.394531 1794.558594 870.570312 1811.539062 C 879.550781 1881.890625 892.691406 1950.75 909.769531 2018.0625 Z M 714.140625 889.628906 L 962.703125 889.628906 C 940.152344 963.570312 918.914062 1044.558594 901.363281 1131.171875 C 899.324219 1141.230469 897.382812 1151.269531 895.484375 1161.289062 L 746.128906 1161.300781 C 700.972656 1161.289062 664.039062 1198.910156 664.039062 1244.871094 L 664.039062 1405.828125 L 523.496094 1405.371094 C 538.476562 1213.121094 607.125 1036.019531 714.140625 889.628906 Z M 1076.410156 584.570312 C 1055.890625 630.621094 1032.800781 686.371094 1009.390625 750.320312 L 837.382812 750.320312 C 908.257812 683.808594 988.703125 627.730469 1076.410156 584.570312 Z M 1430.289062 889.628906 L 1430.289062 1161.289062 L 1040.199219 1161.300781 C 1060.070312 1062.601562 1085.25 971.089844 1111.660156 889.628906 Z M 1268.210938 514.371094 C 1320.730469 501.25 1374.859375 492.410156 1430.289062 488.320312 L 1430.289062 750.320312 L 1161.269531 750.320312 C 1209.878906 625.210938 1254.050781 540.519531 1268.210938 514.371094 Z M 1567.109375 889.628906 L 1881.21875 889.628906 C 1904.371094 966.058594 1926.269531 1050.769531 1943.820312 1141.550781 C 1945.089844 1148.148438 1946.261719 1154.710938 1947.480469 1161.289062 L 1567.109375 1161.300781 Z M 1567.109375 487.871094 C 1624.390625 491.699219 1680.339844 500.550781 1734.539062 514 C 1754.96875 555.089844 1793.769531 637.871094 1834.75 750.320312 L 1567.109375 750.320312 Z M 2166.871094 750.320312 L 1980.5 750.320312 C 1957.890625 684.429688 1935.320312 626.640625 1915.011719 578.441406 C 2007.691406 622.378906 2092.558594 680.578125 2166.871094 750.320312 Z M 2290.109375 889.628906 C 2398.328125 1037.671875 2467.289062 1217.101562 2481.238281 1411.839844 L 2319.699219 1411.308594 L 2319.699219 1244.871094 C 2319.699219 1198.910156 2282.75 1161.289062 2237.589844 1161.289062 L 2086.570312 1161.300781 C 2083.609375 1144.320312 2080.550781 1127.328125 2077.21875 1110.28125 C 2061.890625 1031.730469 2043.640625 957.871094 2024.191406 889.628906 Z M 1502.128906 346.308594 C 885.316406 346.308594 383.527344 857.210938 383.527344 1485.179688 C 383.527344 2113.167969 885.316406 2624.078125 1502.128906 2624.078125 C 2118.921875 2624.078125 2620.71875 2113.167969 2620.71875 1485.179688 C 2620.71875 857.210938 2118.921875 346.308594 1502.128906 346.308594 "/>
<path fill-rule="nonzero" fill="rgb(0%, 0%, 0%)" fill-opacity="1" d="M 1043.410156 1259.859375 C 1042.808594 1259.859375 1042.269531 1260.230469 1042.050781 1260.78125 L 1001.21875 1260.78125 C 1000.570312 1260.78125 999.992188 1261.199219 999.796875 1261.820312 L 937.445312 1463.121094 L 888.335938 1261.910156 C 888.171875 1261.25 887.578125 1260.78125 886.894531 1260.78125 L 778.398438 1260.78125 C 777.9375 1260.78125 777.5 1260.988281 777.21875 1261.359375 C 776.9375 1261.730469 776.847656 1262.210938 776.96875 1262.660156 L 889.851562 1670.730469 L 890.394531 1671.140625 L 889.851562 1670.730469 C 890.027344 1671.371094 890.613281 1671.808594 891.277344 1671.808594 L 928.9375 1671.808594 L 929.59375 1674.480469 C 929.753906 1675.121094 930.324219 1675.589844 930.992188 1675.609375 L 930.988281 1675.609375 C 931.003906 1675.609375 931.019531 1675.609375 931.035156 1675.609375 C 931.683594 1675.609375 932.257812 1675.191406 932.449219 1674.558594 L 933.300781 1671.808594 L 974.933594 1671.808594 C 975.585938 1671.808594 976.160156 1671.378906 976.351562 1670.761719 L 1043.429688 1452.761719 L 1110.5 1670.769531 C 1110.691406 1671.390625 1111.269531 1671.808594 1111.921875 1671.808594 L 1153.550781 1671.808594 L 1154.398438 1674.558594 C 1154.589844 1675.179688 1155.171875 1675.609375 1155.820312 1675.609375 C 1155.828125 1675.609375 1155.839844 1675.609375 1155.859375 1675.609375 C 1156.519531 1675.589844 1157.101562 1675.128906 1157.261719 1674.480469 L 1157.910156 1671.808594 L 1195.570312 1671.808594 C 1196.238281 1671.808594 1196.820312 1671.359375 1197 1670.71875 L 1269.359375 1409.140625 L 1341.710938 1670.730469 C 1341.890625 1671.371094 1342.46875 1671.808594 1343.140625 1671.808594 L 1380.789062 1671.808594 L 1381.449219 1674.480469 C 1381.609375 1675.121094 1382.179688 1675.589844 1382.851562 1675.609375 C 1382.859375 1675.609375 1382.878906 1675.609375 1382.890625 1675.609375 C 1383.539062 1675.609375 1384.109375 1675.179688 1384.308594 1674.558594 L 1385.160156 1671.808594 L 1426.789062 1671.808594 C 1427.441406 1671.808594 1428.019531 1671.378906 1428.210938 1670.761719 L 1495.28125 1452.761719 L 1562.359375 1670.769531 C 1562.550781 1671.390625 1563.128906 1671.808594 1563.78125 1671.808594 L 1605.410156 1671.808594 L 1606.261719 1674.558594 C 1606.449219 1675.179688 1607.03125 1675.609375 1607.679688 1675.609375 C 1607.691406 1675.609375 1607.699219 1675.609375 1607.710938 1675.609375 L 1607.71875 1675.609375 C 1608.378906 1675.589844 1608.949219 1675.128906 1609.109375 1674.480469 L 1609.769531 1671.808594 L 1647.429688 1671.808594 C 1648.101562 1671.808594 1648.679688 1671.359375 1648.859375 1670.71875 L 1721.210938 1409.140625 L 1793.570312 1670.730469 C 1793.75 1671.371094 1794.328125 1671.808594 1795 1671.808594 L 1832.648438 1671.808594 L 1833.308594 1674.480469 C 1833.46875 1675.121094 1834.039062 1675.589844 1834.710938 1675.609375 C 1834.71875 1675.609375 1834.730469 1675.609375 1834.75 1675.609375 C 1835.398438 1675.609375 1835.96875 1675.179688 1836.160156 1674.558594 L 1837.019531 1671.808594 L 1878.648438 1671.808594 C 1879.300781 1671.808594 1879.878906 1671.378906 1880.070312 1670.761719 L 1947.140625 1452.761719 L 2014.230469 1670.769531 C 2014.421875 1671.390625 2015 1671.808594 2015.640625 1671.808594 L 2057.269531 1671.808594 L 2058.121094 1674.558594 C 2058.308594 1675.179688 2058.878906 1675.609375 2059.53125 1675.609375 C 2059.550781 1675.609375 2059.558594 1675.609375 2059.570312 1675.609375 C 2060.238281 1675.589844 2060.808594 1675.128906 2060.96875 1674.480469 L 2061.628906 1671.808594 L 2099.289062 1671.808594 C 2099.949219 1671.808594 2100.539062 1671.359375 2100.71875 1670.71875 L 2213.589844 1262.660156 C 2213.71875 1262.210938 2213.628906 1261.730469 2213.351562 1261.359375 L 2212.648438 1261.890625 L 2213.339844 1261.359375 C 2213.070312 1261 2212.628906 1260.78125 2212.171875 1260.78125 L 2103.691406 1260.78125 C 2103 1260.78125 2102.410156 1261.25 2102.25 1261.910156 L 2053.121094 1463.121094 L 1990.769531 1261.820312 C 1990.578125 1261.199219 1990 1260.78125 1989.351562 1260.78125 L 1948.511719 1260.78125 C 1948.289062 1260.21875 1947.75 1259.859375 1947.140625 1259.859375 C 1946.53125 1259.859375 1945.988281 1260.230469 1945.769531 1260.78125 L 1904.929688 1260.78125 C 1904.28125 1260.78125 1903.710938 1261.199219 1903.519531 1261.820312 L 1841.160156 1463.121094 L 1792.039062 1261.910156 C 1791.878906 1261.25 1791.28125 1260.78125 1790.601562 1260.78125 L 1651.820312 1260.78125 C 1651.128906 1260.78125 1650.539062 1261.25 1650.378906 1261.910156 L 1601.261719 1463.121094 L 1538.910156 1261.820312 L 1538.078125 1262.078125 L 1538.910156 1261.820312 C 1538.71875 1261.199219 1538.140625 1260.78125 1537.5 1260.78125 L 1496.660156 1260.78125 C 1496.429688 1260.21875 1495.890625 1259.859375 1495.28125 1259.859375 L 1495.269531 1259.859375 C 1494.660156 1259.859375 1494.128906 1260.230469 1493.910156 1260.78125 L 1453.070312 1260.78125 C 1452.421875 1260.78125 1451.851562 1261.199219 1451.660156 1261.820312 L 1389.308594 1463.121094 L 1340.179688 1261.910156 C 1340.019531 1261.25 1339.421875 1260.78125 1338.738281 1260.78125 L 1199.960938 1260.78125 C 1199.269531 1260.78125 1198.679688 1261.25 1198.519531 1261.910156 L 1149.410156 1463.121094 L 1087.050781 1261.820312 C 1086.859375 1261.199219 1086.289062 1260.78125 1085.640625 1260.78125 L 1044.800781 1260.78125 C 1044.570312 1260.21875 1044.03125 1259.859375 1043.429688 1259.859375 Z M 1043.410156 1259.859375 "/>
<path fill-rule="nonzero" fill="rgb(99.609375%, 99.609375%, 99.609375%)" fill-opacity="1" d="M 1907.910156 1355.429688 L 1852.46875 1418.640625 L 1852.46875 1355.429688 Z M 1956.101562 1429.519531 L 1852.46875 1548.691406 L 1852.46875 1429.519531 Z M 930.15625 1274.589844 L 930.15625 1556.988281 L 1010.46875 1643.519531 L 1019.800781 1643.519531 L 1080.941406 1574.609375 L 1142.601562 1643.519531 L 1151.929688 1643.519531 L 1232.238281 1556.988281 L 1232.238281 1274.589844 L 1142.601562 1274.589844 L 1142.601562 1506.730469 L 1080.941406 1439.878906 L 1019.800781 1506.730469 L 1019.800781 1274.589844 Z M 1401.160156 1274.589844 L 1401.160156 1572.53125 L 1457.628906 1643.519531 L 1598.570312 1643.519531 L 1598.570312 1551.289062 L 1490.800781 1551.289062 L 1490.800781 1483.410156 L 1598.570312 1483.410156 L 1598.570312 1404.648438 L 1490.800781 1404.648438 L 1490.800781 1366.820312 L 1598.570312 1366.820312 L 1598.570312 1274.589844 Z M 1762.308594 1274.589844 L 1762.308594 1643.519531 L 1897.03125 1643.519531 L 2040.039062 1469.941406 L 1976.820312 1415.011719 L 2028.640625 1351.28125 L 1978.890625 1274.589844 Z M 1762.308594 1274.589844 "/>
</svg>
